<mxfile host="app.diagrams.net" modified="2023-01-29T20:02:30.157Z" agent="5.0 (Macintosh; Intel Mac OS X 10_15_7) AppleWebKit/537.36 (KHTML, like Gecko) Chrome/109.0.0.0 Safari/537.36" etag="QKS7veFvrXyek2O7yAVQ" version="20.8.13" type="github">
  <diagram name="Page-1" id="JSIpw-Gab11g-2oWEoVy">
    <mxGraphModel dx="955" dy="572" grid="0" gridSize="10" guides="1" tooltips="1" connect="1" arrows="1" fold="1" page="0" pageScale="1" pageWidth="850" pageHeight="1100" math="0" shadow="0">
      <root>
        <mxCell id="0" />
        <mxCell id="1" parent="0" />
        <mxCell id="2z0HGwpnnQDzrqCcc-WQ-3" style="edgeStyle=orthogonalEdgeStyle;rounded=0;orthogonalLoop=1;jettySize=auto;html=1;entryX=0;entryY=0.5;entryDx=0;entryDy=0;" parent="1" source="2z0HGwpnnQDzrqCcc-WQ-1" target="2z0HGwpnnQDzrqCcc-WQ-2" edge="1">
          <mxGeometry relative="1" as="geometry" />
        </mxCell>
        <mxCell id="2z0HGwpnnQDzrqCcc-WQ-1" value="JUnit Test" style="rounded=0;whiteSpace=wrap;html=1;" parent="1" vertex="1">
          <mxGeometry x="109" y="251" width="120" height="60" as="geometry" />
        </mxCell>
        <mxCell id="2z0HGwpnnQDzrqCcc-WQ-5" style="edgeStyle=orthogonalEdgeStyle;rounded=0;orthogonalLoop=1;jettySize=auto;html=1;entryX=0;entryY=0.5;entryDx=0;entryDy=0;" parent="1" source="2z0HGwpnnQDzrqCcc-WQ-2" target="2z0HGwpnnQDzrqCcc-WQ-4" edge="1">
          <mxGeometry relative="1" as="geometry" />
        </mxCell>
        <mxCell id="2z0HGwpnnQDzrqCcc-WQ-10" style="edgeStyle=orthogonalEdgeStyle;rounded=0;orthogonalLoop=1;jettySize=auto;html=1;exitX=1;exitY=0.75;exitDx=0;exitDy=0;entryX=0;entryY=0.5;entryDx=0;entryDy=0;dashed=1;dashPattern=8 8;" parent="1" source="2z0HGwpnnQDzrqCcc-WQ-2" target="2z0HGwpnnQDzrqCcc-WQ-9" edge="1">
          <mxGeometry relative="1" as="geometry" />
        </mxCell>
        <mxCell id="2z0HGwpnnQDzrqCcc-WQ-2" value="Software &lt;br&gt;Component&amp;nbsp;&lt;br&gt;Under Test" style="rounded=0;whiteSpace=wrap;html=1;" parent="1" vertex="1">
          <mxGeometry x="301" y="251" width="120" height="60" as="geometry" />
        </mxCell>
        <mxCell id="2z0HGwpnnQDzrqCcc-WQ-8" style="edgeStyle=orthogonalEdgeStyle;rounded=0;orthogonalLoop=1;jettySize=auto;html=1;entryX=0;entryY=0.5;entryDx=0;entryDy=0;" parent="1" source="2z0HGwpnnQDzrqCcc-WQ-4" target="2z0HGwpnnQDzrqCcc-WQ-7" edge="1">
          <mxGeometry relative="1" as="geometry" />
        </mxCell>
        <mxCell id="2z0HGwpnnQDzrqCcc-WQ-4" value="Dependency Component" style="rounded=0;whiteSpace=wrap;html=1;" parent="1" vertex="1">
          <mxGeometry x="499" y="251" width="120" height="60" as="geometry" />
        </mxCell>
        <mxCell id="2z0HGwpnnQDzrqCcc-WQ-7" value="Bomb" style="ellipse;whiteSpace=wrap;html=1;aspect=fixed;" parent="1" vertex="1">
          <mxGeometry x="697" y="241" width="80" height="80" as="geometry" />
        </mxCell>
        <mxCell id="2z0HGwpnnQDzrqCcc-WQ-9" value="Double of&lt;br&gt;Dependency Component" style="rounded=0;whiteSpace=wrap;html=1;dashed=1;dashPattern=8 8;" parent="1" vertex="1">
          <mxGeometry x="499" y="364" width="120" height="60" as="geometry" />
        </mxCell>
        <mxCell id="2z0HGwpnnQDzrqCcc-WQ-11" value="" style="endArrow=none;html=1;rounded=0;" parent="1" edge="1">
          <mxGeometry width="50" height="50" relative="1" as="geometry">
            <mxPoint x="738" y="241" as="sourcePoint" />
            <mxPoint x="748" y="222" as="targetPoint" />
          </mxGeometry>
        </mxCell>
        <mxCell id="bXxNS1EfpRLiCX-voFhY-3" style="edgeStyle=orthogonalEdgeStyle;rounded=0;orthogonalLoop=1;jettySize=auto;html=1;exitX=1;exitY=0.25;exitDx=0;exitDy=0;entryX=0.035;entryY=0.318;entryDx=0;entryDy=0;entryPerimeter=0;" edge="1" parent="1" source="bXxNS1EfpRLiCX-voFhY-1" target="bXxNS1EfpRLiCX-voFhY-2">
          <mxGeometry relative="1" as="geometry" />
        </mxCell>
        <mxCell id="bXxNS1EfpRLiCX-voFhY-1" value="createUser" style="rounded=0;whiteSpace=wrap;html=1;" vertex="1" parent="1">
          <mxGeometry x="101" y="632" width="120" height="60" as="geometry" />
        </mxCell>
        <mxCell id="bXxNS1EfpRLiCX-voFhY-4" style="edgeStyle=orthogonalEdgeStyle;rounded=0;orthogonalLoop=1;jettySize=auto;html=1;exitX=0.021;exitY=0.683;exitDx=0;exitDy=0;entryX=1;entryY=0.75;entryDx=0;entryDy=0;exitPerimeter=0;dashed=1;dashPattern=8 8;" edge="1" parent="1" source="bXxNS1EfpRLiCX-voFhY-2" target="bXxNS1EfpRLiCX-voFhY-1">
          <mxGeometry relative="1" as="geometry" />
        </mxCell>
        <mxCell id="bXxNS1EfpRLiCX-voFhY-6" style="edgeStyle=orthogonalEdgeStyle;rounded=0;orthogonalLoop=1;jettySize=auto;html=1;entryX=0.005;entryY=0.569;entryDx=0;entryDy=0;entryPerimeter=0;dashed=1;dashPattern=8 8;" edge="1" parent="1" source="bXxNS1EfpRLiCX-voFhY-2" target="bXxNS1EfpRLiCX-voFhY-5">
          <mxGeometry relative="1" as="geometry" />
        </mxCell>
        <mxCell id="bXxNS1EfpRLiCX-voFhY-2" value="User&amp;nbsp;&lt;br&gt;Service" style="ellipse;whiteSpace=wrap;html=1;aspect=fixed;" vertex="1" parent="1">
          <mxGeometry x="329" y="622" width="80" height="80" as="geometry" />
        </mxCell>
        <mxCell id="bXxNS1EfpRLiCX-voFhY-5" value="User&amp;nbsp;DB" style="shape=cylinder3;whiteSpace=wrap;html=1;boundedLbl=1;backgroundOutline=1;size=15;" vertex="1" parent="1">
          <mxGeometry x="517" y="616" width="60" height="80" as="geometry" />
        </mxCell>
        <mxCell id="bXxNS1EfpRLiCX-voFhY-8" value="System Under Test" style="text;html=1;align=center;verticalAlign=middle;resizable=0;points=[];autosize=1;strokeColor=none;fillColor=none;" vertex="1" parent="1">
          <mxGeometry x="101.5" y="699" width="119" height="26" as="geometry" />
        </mxCell>
        <mxCell id="bXxNS1EfpRLiCX-voFhY-9" value="stubbed response" style="text;html=1;align=center;verticalAlign=middle;resizable=0;points=[];autosize=1;strokeColor=none;fillColor=none;" vertex="1" parent="1">
          <mxGeometry x="225" y="679" width="113" height="26" as="geometry" />
        </mxCell>
        <mxCell id="bXxNS1EfpRLiCX-voFhY-10" value="store to DB" style="text;html=1;align=center;verticalAlign=middle;resizable=0;points=[];autosize=1;strokeColor=none;fillColor=none;" vertex="1" parent="1">
          <mxGeometry x="425" y="662" width="78" height="26" as="geometry" />
        </mxCell>
        <mxCell id="bXxNS1EfpRLiCX-voFhY-11" value="" style="rounded=1;whiteSpace=wrap;html=1;fillColor=none;" vertex="1" parent="1">
          <mxGeometry x="85" y="604" width="340" height="129" as="geometry" />
        </mxCell>
        <mxCell id="bXxNS1EfpRLiCX-voFhY-13" value="Httpclient.send()" style="rounded=0;whiteSpace=wrap;html=1;" vertex="1" parent="1">
          <mxGeometry x="101.5" y="963" width="120" height="60" as="geometry" />
        </mxCell>
        <mxCell id="bXxNS1EfpRLiCX-voFhY-14" value="Actual Client" style="rounded=0;whiteSpace=wrap;html=1;" vertex="1" parent="1">
          <mxGeometry x="305" y="892" width="120" height="60" as="geometry" />
        </mxCell>
        <mxCell id="bXxNS1EfpRLiCX-voFhY-16" value="Mock Client" style="rounded=0;whiteSpace=wrap;html=1;" vertex="1" parent="1">
          <mxGeometry x="305" y="1027" width="120" height="60" as="geometry" />
        </mxCell>
        <mxCell id="bXxNS1EfpRLiCX-voFhY-20" value="send request" style="text;html=1;align=center;verticalAlign=middle;resizable=0;points=[];autosize=1;strokeColor=none;fillColor=none;rotation=-30;" vertex="1" parent="1">
          <mxGeometry x="211.5" y="930" width="87" height="26" as="geometry" />
        </mxCell>
        <mxCell id="bXxNS1EfpRLiCX-voFhY-23" value="" style="endArrow=classic;html=1;rounded=0;exitX=1;exitY=0.25;exitDx=0;exitDy=0;entryX=0;entryY=0.5;entryDx=0;entryDy=0;" edge="1" parent="1" source="bXxNS1EfpRLiCX-voFhY-13" target="bXxNS1EfpRLiCX-voFhY-14">
          <mxGeometry width="50" height="50" relative="1" as="geometry">
            <mxPoint x="242" y="974" as="sourcePoint" />
            <mxPoint x="292" y="924" as="targetPoint" />
          </mxGeometry>
        </mxCell>
        <mxCell id="bXxNS1EfpRLiCX-voFhY-24" value="" style="endArrow=classic;html=1;rounded=0;exitX=0;exitY=0.5;exitDx=0;exitDy=0;entryX=1;entryY=0.75;entryDx=0;entryDy=0;dashed=1;dashPattern=8 8;" edge="1" parent="1" source="bXxNS1EfpRLiCX-voFhY-16" target="bXxNS1EfpRLiCX-voFhY-13">
          <mxGeometry width="50" height="50" relative="1" as="geometry">
            <mxPoint x="229" y="1115" as="sourcePoint" />
            <mxPoint x="279" y="1065" as="targetPoint" />
          </mxGeometry>
        </mxCell>
        <mxCell id="bXxNS1EfpRLiCX-voFhY-25" value="www.example.com" style="text;html=1;align=center;verticalAlign=middle;resizable=0;points=[];autosize=1;strokeColor=none;fillColor=none;" vertex="1" parent="1">
          <mxGeometry x="313" y="864" width="118" height="26" as="geometry" />
        </mxCell>
        <mxCell id="bXxNS1EfpRLiCX-voFhY-26" value="return request &lt;br&gt;method call&amp;nbsp;" style="text;html=1;align=center;verticalAlign=middle;resizable=0;points=[];autosize=1;strokeColor=none;fillColor=none;rotation=30;" vertex="1" parent="1">
          <mxGeometry x="214" y="1031" width="93" height="41" as="geometry" />
        </mxCell>
      </root>
    </mxGraphModel>
  </diagram>
</mxfile>
